<svg width="521" height="166" viewBox="0 0 521 166" fill="none" xmlns="http://www.w3.org/2000/svg">
<path d="M31.4457 73.69C35.4323 88.1033 46.2423 95.31 63.8757 95.31C75.2223 95.31 83.809 91.4767 89.6357 83.81L113.556 97.61C102.209 114.017 85.4957 122.22 63.4157 122.22C44.4023 122.22 29.1457 116.47 17.6457 104.97C6.14566 93.47 0.39566 78.98 0.39566 61.5C0.39566 44.1733 6.069 29.76 17.4157 18.26C28.7623 6.60667 43.329 0.779999 61.1157 0.779999C77.9823 0.779999 91.859 6.60667 102.746 18.26C113.786 29.9133 119.306 44.3267 119.306 61.5C119.306 65.3333 118.922 69.3967 118.156 73.69H31.4457ZM30.9857 50.69H89.6357C87.949 42.87 84.4223 37.0433 79.0557 33.21C73.8423 29.3767 67.8623 27.46 61.1157 27.46C53.1423 27.46 46.549 29.53 41.3357 33.67C36.1223 37.6567 32.6723 43.33 30.9857 50.69ZM226.52 4H256.19V119H226.52V105.43C217.626 116.623 205.13 122.22 189.03 122.22C173.696 122.22 160.51 116.393 149.47 104.74C138.583 92.9333 133.14 78.52 133.14 61.5C133.14 44.48 138.583 30.1433 149.47 18.49C160.51 6.68333 173.696 0.779999 189.03 0.779999C205.13 0.779999 217.626 6.37667 226.52 17.57V4ZM171.78 84.96C177.76 90.94 185.35 93.93 194.55 93.93C203.75 93.93 211.34 90.94 217.32 84.96C223.453 78.8267 226.52 71.0067 226.52 61.5C226.52 51.9933 223.453 44.25 217.32 38.27C211.34 32.1367 203.75 29.07 194.55 29.07C185.35 29.07 177.76 32.1367 171.78 38.27C165.8 44.25 162.81 51.9933 162.81 61.5C162.81 71.0067 165.8 78.8267 171.78 84.96ZM309.566 36.66C309.566 39.7267 311.559 42.2567 315.546 44.25C319.686 46.09 324.669 47.7767 330.496 49.31C336.323 50.69 342.149 52.53 347.976 54.83C353.803 56.9767 358.709 60.6567 362.696 65.87C366.836 71.0833 368.906 77.6 368.906 85.42C368.906 97.2267 364.459 106.35 355.566 112.79C346.826 119.077 335.863 122.22 322.676 122.22C299.063 122.22 282.963 113.097 274.376 94.85L300.136 80.36C303.509 90.3267 311.023 95.31 322.676 95.31C333.256 95.31 338.546 92.0133 338.546 85.42C338.546 82.3533 336.476 79.9 332.336 78.06C328.349 76.0667 323.443 74.3033 317.616 72.77C311.789 71.2367 305.963 69.32 300.136 67.02C294.309 64.72 289.326 61.1167 285.186 56.21C281.199 51.15 279.206 44.8633 279.206 37.35C279.206 26.0033 283.346 17.11 291.626 10.67C300.059 4.07667 310.486 0.779999 322.906 0.779999C332.259 0.779999 340.769 2.92666 348.436 7.21999C356.103 11.36 362.159 17.34 366.606 25.16L341.306 38.96C337.626 31.14 331.493 27.23 322.906 27.23C319.073 27.23 315.853 28.0733 313.246 29.76C310.793 31.4467 309.566 33.7467 309.566 36.66ZM458.25 4H489.99L448.13 119C442.15 135.56 434.177 147.52 424.21 154.88C414.397 162.393 402.13 165.767 387.41 165V137.4C395.384 137.553 401.67 135.867 406.27 132.34C411.024 128.813 414.78 123.14 417.54 115.32L370.39 4H402.82L432.72 81.28L458.25 4ZM514.271 116.24C510.438 120.073 505.838 121.99 500.471 121.99C495.105 121.99 490.505 120.073 486.671 116.24C482.838 112.407 480.921 107.807 480.921 102.44C480.921 97.0733 482.838 92.4733 486.671 88.64C490.505 84.8067 495.105 82.89 500.471 82.89C505.838 82.89 510.438 84.8067 514.271 88.64C518.105 92.4733 520.021 97.0733 520.021 102.44C520.021 107.807 518.105 112.407 514.271 116.24Z" fill="white"/>
</svg>
