<svg width="30" height="30" viewBox="0 0 30 30" fill="none" xmlns="http://www.w3.org/2000/svg">
<path d="M14.9997 13.582C14.624 13.582 14.2636 13.7313 13.9979 13.997C13.7323 14.2626 13.583 14.623 13.583 14.9987V20.6654C13.583 21.0411 13.7323 21.4014 13.9979 21.6671C14.2636 21.9328 14.624 22.082 14.9997 22.082C15.3754 22.082 15.7357 21.9328 16.0014 21.6671C16.2671 21.4014 16.4163 21.0411 16.4163 20.6654V14.9987C16.4163 14.623 16.2671 14.2626 16.0014 13.997C15.7357 13.7313 15.3754 13.582 14.9997 13.582ZM15.538 8.0287C15.1931 7.88701 14.8062 7.88701 14.4613 8.0287C14.2874 8.09612 14.1286 8.19722 13.9938 8.3262C13.8687 8.4639 13.7681 8.62202 13.6963 8.7937C13.617 8.96183 13.5782 9.1462 13.583 9.33203C13.5819 9.51848 13.6177 9.7033 13.6882 9.8759C13.7587 10.0485 13.8625 10.2055 13.9938 10.3379C14.1315 10.463 14.2897 10.5636 14.4613 10.6354C14.676 10.7235 14.909 10.7576 15.1399 10.7347C15.3707 10.7117 15.5925 10.6324 15.7855 10.5037C15.9786 10.375 16.1371 10.2009 16.2471 9.99655C16.3571 9.79225 16.4152 9.56406 16.4163 9.33203C16.4111 8.95695 16.2644 8.59768 16.0055 8.3262C15.8708 8.19722 15.7119 8.09612 15.538 8.0287ZM14.9997 0.832031C12.1978 0.832031 9.4588 1.66289 7.1291 3.21955C4.79941 4.7762 2.98363 6.98873 1.91139 9.57735C0.839146 12.166 0.558599 15.0144 1.10522 17.7625C1.65185 20.5105 3.00109 23.0348 4.98233 25.016C6.96358 26.9973 9.48784 28.3465 12.2359 28.8932C14.984 29.4398 17.8324 29.1592 20.421 28.087C23.0096 27.0148 25.2222 25.199 26.7788 22.8693C28.3355 20.5396 29.1663 17.8006 29.1663 14.9987C29.1663 13.1383 28.7999 11.2961 28.088 9.57735C27.376 7.85857 26.3325 6.29685 25.017 4.98135C23.7015 3.66586 22.1398 2.62235 20.421 1.9104C18.7022 1.19846 16.8601 0.832031 14.9997 0.832031ZM14.9997 26.332C12.7582 26.332 10.567 25.6673 8.70322 24.422C6.83946 23.1767 5.38684 21.4067 4.52905 19.3358C3.67125 17.2649 3.44682 14.9861 3.88411 12.7877C4.32141 10.5892 5.40081 8.56982 6.9858 6.98482C8.5708 5.39983 10.5902 4.32043 12.7887 3.88313C14.9871 3.44583 17.2659 3.67027 19.3368 4.52806C21.4077 5.38586 23.1777 6.83848 24.423 8.70224C25.6683 10.566 26.333 12.7572 26.333 14.9987C26.333 18.0045 25.139 20.8872 23.0136 23.0126C20.8881 25.138 18.0055 26.332 14.9997 26.332Z" fill="white"/>
</svg>