<svg width="116" height="44" viewBox="0 0 116 44" fill="none" xmlns="http://www.w3.org/2000/svg">
<path d="M6.87949 23.15C7.74616 26.2833 10.0962 27.85 13.9295 27.85C16.3962 27.85 18.2628 27.0167 19.5295 25.35L24.7295 28.35C22.2628 31.9167 18.6295 33.7 13.8295 33.7C9.6962 33.7 6.37949 32.45 3.87949 29.95C1.37949 27.45 0.12949 24.3 0.12949 20.5C0.12949 16.7333 1.36283 13.6 3.82949 11.1C6.29616 8.5667 9.4628 7.3 13.3295 7.3C16.9962 7.3 20.0128 8.5667 22.3795 11.1C24.7795 13.6333 25.9795 16.7667 25.9795 20.5C25.9795 21.3333 25.8962 22.2167 25.7295 23.15H6.87949ZM6.77949 18.15H19.5295C19.1628 16.45 18.3962 15.1833 17.2295 14.35C16.0962 13.5167 14.7962 13.1 13.3295 13.1C11.5962 13.1 10.1628 13.55 9.0295 14.45C7.89616 15.3167 7.14616 16.55 6.77949 18.15ZM49.2869 8H55.7369V33H49.2869V30.05C47.3536 32.4833 44.6369 33.7 41.1369 33.7C37.8036 33.7 34.9369 32.4333 32.5369 29.9C30.1702 27.3333 28.9869 24.2 28.9869 20.5C28.9869 16.8 30.1702 13.6833 32.5369 11.15C34.9369 8.5833 37.8036 7.3 41.1369 7.3C44.6369 7.3 47.3536 8.5167 49.2869 10.95V8ZM37.3869 25.6C38.6869 26.9 40.3369 27.55 42.3369 27.55C44.3369 27.55 45.9869 26.9 47.2869 25.6C48.6202 24.2667 49.2869 22.5667 49.2869 20.5C49.2869 18.4333 48.6202 16.75 47.2869 15.45C45.9869 14.1167 44.3369 13.45 42.3369 13.45C40.3369 13.45 38.6869 14.1167 37.3869 15.45C36.0869 16.75 35.4369 18.4333 35.4369 20.5C35.4369 22.5667 36.0869 24.2667 37.3869 25.6ZM67.3404 15.1C67.3404 15.7667 67.7738 16.3167 68.6404 16.75C69.5404 17.15 70.6238 17.5167 71.8904 17.85C73.1571 18.15 74.4238 18.55 75.6904 19.05C76.9571 19.5167 78.0238 20.3167 78.8904 21.45C79.7904 22.5833 80.2404 24 80.2404 25.7C80.2404 28.2667 79.2738 30.25 77.3404 31.65C75.4404 33.0167 73.0571 33.7 70.1904 33.7C65.0571 33.7 61.5571 31.7167 59.6904 27.75L65.2904 24.6C66.0238 26.7667 67.6571 27.85 70.1904 27.85C72.4904 27.85 73.6404 27.1333 73.6404 25.7C73.6404 25.0333 73.1904 24.5 72.2904 24.1C71.4238 23.6667 70.3571 23.2833 69.0904 22.95C67.8238 22.6167 66.5571 22.2 65.2904 21.7C64.0238 21.2 62.9404 20.4167 62.0404 19.35C61.1738 18.25 60.7404 16.8833 60.7404 15.25C60.7404 12.7833 61.6404 10.85 63.4404 9.45C65.2738 8.0167 67.5404 7.3 70.2404 7.3C72.2738 7.3 74.1238 7.7667 75.7904 8.7C77.4571 9.6 78.7738 10.9 79.7404 12.6L74.2404 15.6C73.4404 13.9 72.1071 13.05 70.2404 13.05C69.4071 13.05 68.7071 13.2333 68.1404 13.6C67.6071 13.9667 67.3404 14.4667 67.3404 15.1ZM99.663 8H106.563L97.4631 33C96.1631 36.6 94.4298 39.2 92.2631 40.8C90.1298 42.4333 87.4631 43.1667 84.2631 43V37C85.9964 37.0333 87.3631 36.6667 88.3631 35.9C89.3964 35.1333 90.2131 33.9 90.8131 32.2L80.5631 8H87.6131L94.1131 24.8L99.663 8ZM111.842 32.4C111.008 33.2333 110.008 33.65 108.842 33.65C107.675 33.65 106.675 33.2333 105.842 32.4C105.008 31.5667 104.592 30.5667 104.592 29.4C104.592 28.2333 105.008 27.2333 105.842 26.4C106.675 25.5667 107.675 25.15 108.842 25.15C110.008 25.15 111.008 25.5667 111.842 26.4C112.675 27.2333 113.092 28.2333 113.092 29.4C113.092 30.5667 112.675 31.5667 111.842 32.4Z" fill="white"/>
<path d="M109.443 1.95C110.15 1.2433 111.003 0.889999 112.003 0.889999C113.003 0.889999 113.856 1.2433 114.563 1.95C115.27 2.65 115.623 3.5 115.623 4.5C115.623 5.5 115.27 6.3533 114.563 7.06C113.856 7.76 113.003 8.11 112.003 8.11C111.003 8.11 110.15 7.76 109.443 7.06C108.736 6.3533 108.383 5.5 108.383 4.5C108.383 3.5 108.736 2.65 109.443 1.95ZM109.623 6.89C110.283 7.5433 111.076 7.87 112.003 7.87C112.93 7.87 113.72 7.5433 114.373 6.89C115.026 6.23 115.353 5.4333 115.353 4.5C115.353 3.5667 115.026 2.7733 114.373 2.12C113.72 1.46 112.93 1.13 112.003 1.13C111.076 1.13 110.283 1.46 109.623 2.12C108.97 2.7733 108.643 3.5667 108.643 4.5C108.643 5.4333 108.97 6.23 109.623 6.89ZM113.403 3.81C113.403 4.3567 113.153 4.71 112.653 4.87L113.493 6.35H112.963L112.183 4.96H112.043H111.413V6.35H110.933V2.65H112.043C112.483 2.65 112.82 2.7633 113.053 2.99C113.286 3.2167 113.403 3.49 113.403 3.81ZM111.413 4.5H112.063C112.636 4.5 112.923 4.27 112.923 3.81C112.923 3.5967 112.85 3.4267 112.703 3.3C112.556 3.1733 112.343 3.11 112.063 3.11H111.413V4.5Z" fill="white"/>
</svg>
