<svg width="25" height="24" viewBox="0 0 25 24" fill="none" xmlns="http://www.w3.org/2000/svg">
<path d="M20.7915 21.999C21.3438 21.999 21.7915 21.5513 21.7915 20.999C21.7915 20.4467 21.3438 19.999 20.7915 19.999C20.2392 19.999 19.7915 20.4467 19.7915 20.999C19.7915 21.5513 20.2392 21.999 20.7915 21.999Z" stroke="white" stroke-width="2" stroke-linecap="round" stroke-linejoin="round"/>
<path d="M9.3335 21.999C9.88578 21.999 10.3335 21.5513 10.3335 20.999C10.3335 20.4467 9.88578 19.999 9.3335 19.999C8.78121 19.999 8.3335 20.4467 8.3335 20.999C8.3335 21.5513 8.78121 21.999 9.3335 21.999Z" stroke="white" stroke-width="2" stroke-linecap="round" stroke-linejoin="round"/>
<path d="M1.0415 1.00098H5.0415L7.7215 14.391C7.81295 14.8514 8.06341 15.2649 8.42905 15.5593C8.79469 15.8536 9.2522 16.01 9.7215 16.001H19.4415C19.9108 16.01 20.3683 15.8536 20.734 15.5593C21.0996 15.2649 21.3501 14.8514 21.4415 14.391L23.0415 6.00098H6.0415" stroke="white" stroke-width="2" stroke-linecap="round" stroke-linejoin="round"/>
</svg>
