<svg width="18" height="16" viewBox="0 0 18 16" fill="none" xmlns="http://www.w3.org/2000/svg">
<path d="M16.1825 1.74515C15.7675 1.32997 15.2748 1.00062 14.7325 0.775911C14.1901 0.551204 13.6089 0.435547 13.0219 0.435547C12.4348 0.435547 11.8536 0.551204 11.3112 0.775911C10.7689 1.00062 10.2762 1.32997 9.86123 1.74515L8.99998 2.6064L8.13872 1.74515C7.30048 0.906905 6.16356 0.435981 4.9781 0.435981C3.79264 0.435981 2.65572 0.906905 1.81747 1.74515C0.979225 2.5834 0.508301 3.72031 0.508301 4.90578C0.508301 6.09124 0.979225 7.22815 1.81747 8.0664L2.67872 8.92765L8.99998 15.2489L15.3212 8.92765L16.1825 8.0664C16.5977 7.65141 16.927 7.15869 17.1517 6.61638C17.3764 6.07407 17.4921 5.4928 17.4921 4.90578C17.4921 4.31876 17.3764 3.73749 17.1517 3.19518C16.927 2.65287 16.5977 2.16014 16.1825 1.74515Z" fill="white"/>
</svg>
