<svg width="22" height="22" viewBox="0 0 22 22" fill="none" xmlns="http://www.w3.org/2000/svg">
<path d="M5.6875 0.85H2.5625C2.10832 0.85 1.67274 1.03042 1.35158 1.35158C1.03042 1.67274 0.85 2.10832 0.85 2.5625V5.6875C0.85 6.14168 1.03042 6.57726 1.35158 6.89842C1.67274 7.21958 2.10832 7.4 2.5625 7.4H5.6875C6.14168 7.4 6.57726 7.21958 6.89842 6.89842C7.21958 6.57726 7.4 6.14168 7.4 5.6875V2.5625C7.4 2.10832 7.21958 1.67274 6.89842 1.35158C6.57726 1.03042 6.14168 0.85 5.6875 0.85ZM6.475 5.6875C6.475 5.89636 6.39203 6.09666 6.24435 6.24435C6.09666 6.39203 5.89636 6.475 5.6875 6.475H2.5625C2.35364 6.475 2.15334 6.39203 2.00565 6.24435C1.85797 6.09666 1.775 5.89636 1.775 5.6875V2.5625C1.775 2.35364 1.85797 2.15334 2.00565 2.00565C2.15334 1.85797 2.35364 1.775 2.5625 1.775H5.6875C5.89636 1.775 6.09666 1.85797 6.24435 2.00565C6.39203 2.15334 6.475 2.35364 6.475 2.5625V5.6875Z" fill="white" stroke="white" stroke-width="0.3"/>
<path d="M12.5625 0.85H9.4375C8.98332 0.85 8.54774 1.03042 8.22658 1.35158C7.90542 1.67274 7.725 2.10832 7.725 2.5625V5.6875C7.725 6.14168 7.90542 6.57726 8.22658 6.89842C8.54774 7.21958 8.98332 7.4 9.4375 7.4H12.5625C13.0167 7.4 13.4523 7.21958 13.7734 6.89842C14.0946 6.57726 14.275 6.14168 14.275 5.6875V2.5625C14.275 2.10832 14.0946 1.67274 13.7734 1.35158C13.4523 1.03042 13.0167 0.85 12.5625 0.85ZM13.35 5.6875C13.35 5.89636 13.267 6.09666 13.1193 6.24435C12.9717 6.39203 12.7714 6.475 12.5625 6.475H9.4375C9.22864 6.475 9.02834 6.39203 8.88065 6.24435C8.73297 6.09666 8.65 5.89636 8.65 5.6875V2.5625C8.65 2.35364 8.73297 2.15334 8.88065 2.00565C9.02834 1.85797 9.22864 1.775 9.4375 1.775H12.5625C12.7714 1.775 12.9717 1.85797 13.1193 2.00565C13.267 2.15334 13.35 2.35364 13.35 2.5625V5.6875Z" fill="white" stroke="white" stroke-width="0.3"/>
<path d="M19.4375 0.85H16.3125C15.8583 0.85 15.4227 1.03042 15.1016 1.35158C14.7804 1.67274 14.6 2.10832 14.6 2.5625V5.6875C14.6 6.14168 14.7804 6.57726 15.1016 6.89842C15.4227 7.21958 15.8583 7.4 16.3125 7.4H19.4375C19.8917 7.4 20.3273 7.21958 20.6484 6.89842C20.9696 6.57726 21.15 6.14168 21.15 5.6875V2.5625C21.15 2.10832 20.9696 1.67274 20.6484 1.35158C20.3273 1.03042 19.8917 0.85 19.4375 0.85ZM20.225 5.6875C20.225 5.89636 20.142 6.09666 19.9943 6.24435C19.8467 6.39203 19.6464 6.475 19.4375 6.475H16.3125C16.1036 6.475 15.9033 6.39203 15.7557 6.24435C15.608 6.09666 15.525 5.89636 15.525 5.6875V2.5625C15.525 2.35364 15.608 2.15334 15.7557 2.00565C15.9033 1.85797 16.1036 1.775 16.3125 1.775H19.4375C19.6464 1.775 19.8467 1.85797 19.9943 2.00565C20.142 2.15334 20.225 2.35364 20.225 2.5625V5.6875Z" fill="white" stroke="white" stroke-width="0.3"/>
<path d="M5.6875 7.725H2.5625C2.10832 7.725 1.67274 7.90542 1.35158 8.22658C1.03042 8.54774 0.85 8.98332 0.85 9.4375V12.5625C0.85 13.0167 1.03042 13.4523 1.35158 13.7734C1.67274 14.0946 2.10832 14.275 2.5625 14.275H5.6875C6.14168 14.275 6.57726 14.0946 6.89842 13.7734C7.21958 13.4523 7.4 13.0167 7.4 12.5625V9.4375C7.4 8.98332 7.21958 8.54774 6.89842 8.22658C6.57726 7.90542 6.14168 7.725 5.6875 7.725ZM6.475 12.5625C6.475 12.7714 6.39203 12.9717 6.24435 13.1193C6.09666 13.267 5.89636 13.35 5.6875 13.35H2.5625C2.35364 13.35 2.15334 13.267 2.00565 13.1193C1.85797 12.9717 1.775 12.7714 1.775 12.5625V9.4375C1.775 9.22864 1.85797 9.02834 2.00565 8.88065C2.15334 8.73297 2.35364 8.65 2.5625 8.65H5.6875C5.89636 8.65 6.09666 8.73297 6.24435 8.88065C6.39203 9.02834 6.475 9.22864 6.475 9.4375V12.5625Z" fill="white" stroke="white" stroke-width="0.3"/>
<path d="M12.5625 7.725H9.4375C8.98332 7.725 8.54774 7.90542 8.22658 8.22658C7.90542 8.54774 7.725 8.98332 7.725 9.4375V12.5625C7.725 13.0167 7.90542 13.4523 8.22658 13.7734C8.54774 14.0946 8.98332 14.275 9.4375 14.275H12.5625C13.0167 14.275 13.4523 14.0946 13.7734 13.7734C14.0946 13.4523 14.275 13.0167 14.275 12.5625V9.4375C14.275 8.98332 14.0946 8.54774 13.7734 8.22658C13.4523 7.90542 13.0167 7.725 12.5625 7.725ZM13.35 12.5625C13.35 12.7714 13.267 12.9717 13.1193 13.1193C12.9717 13.267 12.7714 13.35 12.5625 13.35H9.4375C9.22864 13.35 9.02834 13.267 8.88065 13.1193C8.73297 12.9717 8.65 12.7714 8.65 12.5625V9.4375C8.65 9.22864 8.73297 9.02834 8.88065 8.88065C9.02834 8.73297 9.22864 8.65 9.4375 8.65H12.5625C12.7714 8.65 12.9717 8.73297 13.1193 8.88065C13.267 9.02834 13.35 9.22864 13.35 9.4375V12.5625Z" fill="white" stroke="white" stroke-width="0.3"/>
<path d="M19.4375 7.725H16.3125C15.8583 7.725 15.4227 7.90542 15.1016 8.22658C14.7804 8.54774 14.6 8.98332 14.6 9.4375V12.5625C14.6 13.0167 14.7804 13.4523 15.1016 13.7734C15.4227 14.0946 15.8583 14.275 16.3125 14.275H19.4375C19.8917 14.275 20.3273 14.0946 20.6484 13.7734C20.9696 13.4523 21.15 13.0167 21.15 12.5625V9.4375C21.15 8.98332 20.9696 8.54774 20.6484 8.22658C20.3273 7.90542 19.8917 7.725 19.4375 7.725ZM20.225 12.5625C20.225 12.7714 20.142 12.9717 19.9943 13.1193C19.8467 13.267 19.6464 13.35 19.4375 13.35H16.3125C16.1036 13.35 15.9033 13.267 15.7557 13.1193C15.608 12.9717 15.525 12.7714 15.525 12.5625V9.4375C15.525 9.22864 15.608 9.02834 15.7557 8.88065C15.9033 8.73297 16.1036 8.65 16.3125 8.65H19.4375C19.6464 8.65 19.8467 8.73297 19.9943 8.88065C20.142 9.02834 20.225 9.22864 20.225 9.4375V12.5625Z" fill="white" stroke="white" stroke-width="0.3"/>
<path d="M5.6875 14.6H2.5625C2.10832 14.6 1.67274 14.7804 1.35158 15.1016C1.03042 15.4227 0.85 15.8583 0.85 16.3125V19.4375C0.85 19.8917 1.03042 20.3273 1.35158 20.6484C1.67274 20.9696 2.10832 21.15 2.5625 21.15H5.6875C6.14168 21.15 6.57726 20.9696 6.89842 20.6484C7.21958 20.3273 7.4 19.8917 7.4 19.4375V16.3125C7.4 15.8583 7.21958 15.4227 6.89842 15.1016C6.57726 14.7804 6.14168 14.6 5.6875 14.6ZM6.475 19.4375C6.475 19.6464 6.39203 19.8467 6.24435 19.9943C6.09666 20.142 5.89636 20.225 5.6875 20.225H2.5625C2.35364 20.225 2.15334 20.142 2.00565 19.9943C1.85797 19.8467 1.775 19.6464 1.775 19.4375V16.3125C1.775 16.1036 1.85797 15.9033 2.00565 15.7557C2.15334 15.608 2.35364 15.525 2.5625 15.525H5.6875C5.89636 15.525 6.09666 15.608 6.24435 15.7557C6.39203 15.9033 6.475 16.1036 6.475 16.3125V19.4375Z" fill="white" stroke="white" stroke-width="0.3"/>
<path d="M12.5625 14.6H9.4375C8.98332 14.6 8.54774 14.7804 8.22658 15.1016C7.90542 15.4227 7.725 15.8583 7.725 16.3125V19.4375C7.725 19.8917 7.90542 20.3273 8.22658 20.6484C8.54774 20.9696 8.98332 21.15 9.4375 21.15H12.5625C13.0167 21.15 13.4523 20.9696 13.7734 20.6484C14.0946 20.3273 14.275 19.8917 14.275 19.4375V16.3125C14.275 15.8583 14.0946 15.4227 13.7734 15.1016C13.4523 14.7804 13.0167 14.6 12.5625 14.6ZM13.35 19.4375C13.35 19.6464 13.267 19.8467 13.1193 19.9943C12.9717 20.142 12.7714 20.225 12.5625 20.225H9.4375C9.22864 20.225 9.02834 20.142 8.88065 19.9943C8.73297 19.8467 8.65 19.6464 8.65 19.4375V16.3125C8.65 16.1036 8.73297 15.9033 8.88065 15.7557C9.02834 15.608 9.22864 15.525 9.4375 15.525H12.5625C12.7714 15.525 12.9717 15.608 13.1193 15.7557C13.267 15.9033 13.35 16.1036 13.35 16.3125V19.4375Z" fill="white" stroke="white" stroke-width="0.3"/>
<path d="M19.4375 14.6H16.3125C15.8583 14.6 15.4227 14.7804 15.1016 15.1016C14.7804 15.4227 14.6 15.8583 14.6 16.3125V19.4375C14.6 19.8917 14.7804 20.3273 15.1016 20.6484C15.4227 20.9696 15.8583 21.15 16.3125 21.15H19.4375C19.8917 21.15 20.3273 20.9696 20.6484 20.6484C20.9696 20.3273 21.15 19.8917 21.15 19.4375V16.3125C21.15 15.8583 20.9696 15.4227 20.6484 15.1016C20.3273 14.7804 19.8917 14.6 19.4375 14.6ZM20.225 19.4375C20.225 19.6464 20.142 19.8467 19.9943 19.9943C19.8467 20.142 19.6464 20.225 19.4375 20.225H16.3125C16.1036 20.225 15.9033 20.142 15.7557 19.9943C15.608 19.8467 15.525 19.6464 15.525 19.4375V16.3125C15.525 16.1036 15.608 15.9033 15.7557 15.7557C15.9033 15.608 16.1036 15.525 16.3125 15.525H19.4375C19.6464 15.525 19.8467 15.608 19.9943 15.7557C20.142 15.9033 20.225 16.1036 20.225 16.3125V19.4375Z" fill="white" stroke="white" stroke-width="0.3"/>
</svg>
