<svg width="20" height="22" viewBox="0 0 20 22" fill="none" xmlns="http://www.w3.org/2000/svg">
<path d="M11.5625 0.85H8.4375C7.98332 0.85 7.54774 1.03042 7.22658 1.35158C6.90542 1.67274 6.725 2.10832 6.725 2.5625V5.6875C6.725 6.14168 6.90542 6.57726 7.22658 6.89842C7.54774 7.21958 7.98332 7.4 8.4375 7.4H11.5625C12.0167 7.4 12.4523 7.21958 12.7734 6.89842C13.0946 6.57726 13.275 6.14168 13.275 5.6875V2.5625C13.275 2.10832 13.0946 1.67274 12.7734 1.35158C12.4523 1.03042 12.0167 0.85 11.5625 0.85ZM12.35 5.6875C12.35 5.89636 12.267 6.09666 12.1193 6.24435C11.9717 6.39203 11.7714 6.475 11.5625 6.475H8.4375C8.22864 6.475 8.02834 6.39203 7.88065 6.24435C7.73297 6.09666 7.65 5.89636 7.65 5.6875V2.5625C7.65 2.35364 7.73297 2.15334 7.88065 2.00565C8.02834 1.85797 8.22864 1.775 8.4375 1.775H11.5625C11.7714 1.775 11.9717 1.85797 12.1193 2.00565C12.267 2.15334 12.35 2.35364 12.35 2.5625V5.6875Z" fill="white" stroke="white" stroke-width="0.3"/>
<path d="M11.5625 7.725H8.4375C7.98332 7.725 7.54774 7.90542 7.22658 8.22658C6.90542 8.54774 6.725 8.98332 6.725 9.4375V12.5625C6.725 13.0167 6.90542 13.4523 7.22658 13.7734C7.54774 14.0946 7.98332 14.275 8.4375 14.275H11.5625C12.0167 14.275 12.4523 14.0946 12.7734 13.7734C13.0946 13.4523 13.275 13.0167 13.275 12.5625V9.4375C13.275 8.98332 13.0946 8.54774 12.7734 8.22658C12.4523 7.90542 12.0167 7.725 11.5625 7.725ZM12.35 12.5625C12.35 12.7714 12.267 12.9717 12.1193 13.1193C11.9717 13.267 11.7714 13.35 11.5625 13.35H8.4375C8.22864 13.35 8.02834 13.267 7.88065 13.1193C7.73297 12.9717 7.65 12.7714 7.65 12.5625V9.4375C7.65 9.22864 7.73297 9.02834 7.88065 8.88065C8.02834 8.73297 8.22864 8.65 8.4375 8.65H11.5625C11.7714 8.65 11.9717 8.73297 12.1193 8.88065C12.267 9.02834 12.35 9.22864 12.35 9.4375V12.5625Z" fill="white" stroke="white" stroke-width="0.3"/>
<path d="M11.5625 14.6H8.4375C7.98332 14.6 7.54774 14.7804 7.22658 15.1016C6.90542 15.4227 6.725 15.8583 6.725 16.3125V19.4375C6.725 19.8917 6.90542 20.3273 7.22658 20.6484C7.54774 20.9696 7.98332 21.15 8.4375 21.15H11.5625C12.0167 21.15 12.4523 20.9696 12.7734 20.6484C13.0946 20.3273 13.275 19.8917 13.275 19.4375V16.3125C13.275 15.8583 13.0946 15.4227 12.7734 15.1016C12.4523 14.7804 12.0167 14.6 11.5625 14.6ZM12.35 19.4375C12.35 19.6464 12.267 19.8467 12.1193 19.9943C11.9717 20.142 11.7714 20.225 11.5625 20.225H8.4375C8.22864 20.225 8.02834 20.142 7.88065 19.9943C7.73297 19.8467 7.65 19.6464 7.65 19.4375V16.3125C7.65 16.1036 7.73297 15.9033 7.88065 15.7557C8.02834 15.608 8.22864 15.525 8.4375 15.525H11.5625C11.7714 15.525 11.9717 15.608 12.1193 15.7557C12.267 15.9033 12.35 16.1036 12.35 16.3125V19.4375Z" fill="white" stroke="white" stroke-width="0.3"/>
</svg>
