<svg width="28" height="28" viewBox="0 0 28 28" fill="none" xmlns="http://www.w3.org/2000/svg">
<path d="M27.0629 13.9236C27.0629 17.2202 25.9944 20.1227 23.8574 22.631C21.7205 25.1034 19.067 26.5905 15.8972 27.0922V17.7935H18.9958L19.5835 13.9236H15.8972V11.3974C15.8972 10.0357 16.6095 9.35489 18.0342 9.35489H19.6903V6.07618C18.6931 5.89702 17.7136 5.80744 16.752 5.80744C15.7191 5.80744 14.8287 6.00452 14.0808 6.39868C13.3685 6.79284 12.7986 7.38408 12.3712 8.17241C11.9438 8.96073 11.7301 9.89239 11.7301 10.9674V13.9236H8.36439V17.7935H11.7301V27.0922C8.56028 26.5905 5.90688 25.1034 3.76991 22.631C1.63294 20.1227 0.564453 17.2202 0.564453 13.9236C0.564453 10.2328 1.84663 7.09742 4.411 4.51745C7.01098 1.90165 10.1452 0.59375 13.8137 0.59375C17.4821 0.59375 20.5985 1.90165 23.1629 4.51745C25.7629 7.09742 27.0629 10.2328 27.0629 13.9236Z" fill="white"/>
</svg>
