<svg width="27" height="27" viewBox="0 0 27 27" fill="none" xmlns="http://www.w3.org/2000/svg">
<path d="M9.12658 8.84831C10.4338 7.54113 12.0101 6.88755 13.8555 6.88755C15.7009 6.88755 17.258 7.54113 18.5267 8.84831C19.8339 10.117 20.4875 11.6741 20.4875 13.5195C20.4875 15.365 19.8339 16.9413 18.5267 18.2485C17.258 19.5172 15.7009 20.1515 13.8555 20.1515C12.0101 20.1515 10.4338 19.5172 9.12658 18.2485C7.85785 16.9413 7.22348 15.365 7.22348 13.5195C7.22348 11.6741 7.85785 10.117 9.12658 8.84831ZM10.799 16.576C11.6448 17.4219 12.6636 17.8448 13.8555 17.8448C15.0473 17.8448 16.0662 17.4219 16.912 16.576C17.7578 15.7302 18.1807 14.7114 18.1807 13.5195C18.1807 12.3277 17.7578 11.3089 16.912 10.4631C16.0662 9.61724 15.0473 9.19433 13.8555 9.19433C12.6636 9.19433 11.6448 9.61724 10.799 10.4631C9.95318 11.3089 9.53027 12.3277 9.53027 13.5195C9.53027 14.7114 9.95318 15.7302 10.799 16.576ZM21.8139 5.56115C22.1215 5.83027 22.2752 6.17629 22.2752 6.5992C22.2752 7.02211 22.1215 7.38735 21.8139 7.69492C21.5448 8.00249 21.1987 8.15628 20.7758 8.15628C20.3529 8.15628 19.9877 8.00249 19.6801 7.69492C19.3725 7.38735 19.2188 7.02211 19.2188 6.5992C19.2188 6.17629 19.3725 5.83027 19.6801 5.56115C19.9877 5.25357 20.3529 5.09979 20.7758 5.09979C21.1987 5.09979 21.5448 5.25357 21.8139 5.56115ZM26.7158 8.21395C26.7542 9.252 26.7735 11.0205 26.7735 13.5195C26.7735 16.0186 26.7542 17.7871 26.7158 18.8251C26.6005 21.1704 25.8892 22.9966 24.582 24.3038C23.3133 25.5725 21.5063 26.2453 19.1611 26.3222C18.123 26.3991 16.3545 26.4375 13.8555 26.4375C11.3565 26.4375 9.58794 26.3991 8.54988 26.3222C6.20465 26.2069 4.39767 25.5148 3.12894 24.2461C2.62914 23.7847 2.22545 23.2465 1.91788 22.6313C1.61031 22.0162 1.37963 21.4203 1.22585 20.8436C1.11051 20.2669 1.05284 19.5941 1.05284 18.8251C0.975946 17.7871 0.9375 16.0186 0.9375 13.5195C0.9375 11.0205 0.975946 9.23277 1.05284 8.15628C1.16818 5.84949 1.86021 4.06174 3.12894 2.79301C4.39767 1.48583 6.20465 0.774571 8.54988 0.659232C9.58794 0.620786 11.3565 0.601562 13.8555 0.601562C16.3545 0.601562 18.123 0.620786 19.1611 0.659232C21.5063 0.774571 23.3133 1.48583 24.582 2.79301C25.8892 4.06174 26.6005 5.86872 26.7158 8.21395ZM23.9477 21.1319C24.063 20.8244 24.1591 20.4399 24.236 19.9785C24.3129 19.4787 24.3706 18.902 24.409 18.2485C24.4475 17.5564 24.4667 16.9989 24.4667 16.576C24.4667 16.1531 24.4667 15.5572 24.4667 14.7883C24.4667 14.0193 24.4667 13.5964 24.4667 13.5195C24.4667 13.4042 24.4667 12.9813 24.4667 12.2508C24.4667 11.4819 24.4667 10.886 24.4667 10.4631C24.4667 10.0401 24.4475 9.5019 24.409 8.84831C24.3706 8.15628 24.3129 7.57958 24.236 7.11822C24.1591 6.61842 24.063 6.21473 23.9477 5.90716C23.4863 4.71532 22.6597 3.88873 21.4679 3.42737C21.1603 3.31203 20.7566 3.21592 20.2568 3.13902C19.7954 3.06213 19.2188 3.00446 18.5267 2.96601C17.8731 2.92757 17.3349 2.90835 16.912 2.90835C16.5275 2.90835 15.9316 2.90835 15.1242 2.90835C14.3553 2.90835 13.9324 2.90835 13.8555 2.90835C13.7786 2.90835 13.3557 2.90835 12.5868 2.90835C11.8178 2.90835 11.2219 2.90835 10.799 2.90835C10.3761 2.90835 9.81861 2.92757 9.12658 2.96601C8.47299 3.00446 7.89629 3.06213 7.39649 3.13902C6.93514 3.21592 6.55067 3.31203 6.2431 3.42737C5.05126 3.88873 4.22467 4.71532 3.76331 5.90716C3.64797 6.21473 3.55185 6.61842 3.47496 7.11822C3.39807 7.57958 3.3404 8.15628 3.30195 8.84831C3.26351 9.5019 3.24428 10.0401 3.24428 10.4631C3.24428 10.8475 3.24428 11.4434 3.24428 12.2508C3.24428 13.0197 3.24428 13.4427 3.24428 13.5195C3.24428 13.6733 3.24428 14.0386 3.24428 14.6153C3.24428 15.1535 3.24428 15.6149 3.24428 15.9993C3.24428 16.3454 3.24428 16.8067 3.24428 17.3834C3.28273 17.9601 3.32118 18.4599 3.35962 18.8828C3.39807 19.2673 3.45574 19.671 3.53263 20.0939C3.60952 20.5168 3.68642 20.8628 3.76331 21.1319C4.26311 22.3238 5.08971 23.1504 6.2431 23.6117C6.55067 23.7271 6.93514 23.8232 7.39649 23.9001C7.89629 23.977 8.47299 24.0346 9.12658 24.0731C9.81861 24.1115 10.3569 24.1307 10.7413 24.1307C11.1642 24.1307 11.7602 24.1307 12.5291 24.1307C13.3365 24.1307 13.7786 24.1307 13.8555 24.1307C13.9708 24.1307 14.3937 24.1307 15.1242 24.1307C15.8931 24.1307 16.4891 24.1307 16.912 24.1307C17.3349 24.1307 17.8731 24.1115 18.5267 24.0731C19.2188 24.0346 19.7954 23.977 20.2568 23.9001C20.7566 23.8232 21.1603 23.7271 21.4679 23.6117C22.6597 23.1119 23.4863 22.2853 23.9477 21.1319Z" fill="white"/>
</svg>