<svg width="31" height="20" viewBox="0 0 31 20" fill="none" xmlns="http://www.w3.org/2000/svg">
<path d="M30.024 1.89109C29.9108 2.49145 29.458 3.47203 28.6657 4.83283C27.9111 6.19364 27.2131 7.39435 26.5717 8.43496C25.9302 9.43555 25.5907 9.95586 25.5529 9.99589C25.3266 10.3561 25.2134 10.6163 25.2134 10.7763C25.2134 10.9364 25.3266 11.2166 25.5529 11.6168C25.5529 11.6168 25.6661 11.7569 25.8925 12.0371C26.1566 12.3173 26.4585 12.6374 26.798 12.9977C27.1376 13.3579 27.5149 13.7781 27.9299 14.2584C28.345 14.7387 28.7223 15.219 29.0618 15.6993C29.4391 16.1395 29.7598 16.5998 30.024 17.0801C30.3258 17.5604 30.5333 17.9606 30.6465 18.2808C30.9106 19.2814 30.5333 19.7817 29.5146 19.7817H26.1755C25.9114 19.7817 25.685 19.7416 25.4963 19.6616C25.3077 19.5816 25.1002 19.4415 24.8738 19.2414C24.6474 19.0412 24.4399 18.8211 24.2513 18.581C24.0626 18.3408 23.7796 18.0006 23.4023 17.5604C23.025 17.1201 22.6477 16.6999 22.2704 16.2996C20.7612 14.7787 19.6482 14.0183 18.9313 14.0183C18.4785 14.0183 18.2144 14.1583 18.139 14.4385C18.0635 14.7187 18.0258 15.5192 18.0258 16.8399C18.0635 17.4803 18.0824 18.0006 18.0824 18.4009C18.0824 18.8811 17.9315 19.2414 17.6296 19.4815C17.3278 19.6816 16.6675 19.7817 15.6488 19.7817C13.8755 19.7817 12.0833 19.2213 10.2722 18.1007C8.46119 16.98 6.87652 15.3791 5.51824 13.2978C4.23541 11.4567 3.1601 9.63567 2.29231 7.83461C1.46225 5.99352 0.91516 4.59269 0.651049 3.63212C0.386938 2.67155 0.254883 1.99115 0.254883 1.59092C0.254883 0.910514 0.632184 0.570312 1.38679 0.570312H4.7259C5.14094 0.570312 5.44278 0.670372 5.63143 0.87049C5.85781 1.07061 6.04646 1.43082 6.19738 1.95113C6.98971 4.39257 7.95183 6.57386 9.08373 8.495C10.2534 10.4161 11.14 11.3767 11.7437 11.3767C11.9701 11.3767 12.121 11.2967 12.1965 11.1366C12.3097 10.9364 12.3663 10.5762 12.3663 10.0559V4.83283C12.3285 4.2725 12.2342 3.79222 12.0833 3.39198C11.9324 2.99174 11.7814 2.71158 11.6305 2.55148C11.4796 2.35137 11.3287 2.15125 11.1778 1.95113C11.0646 1.75101 11.008 1.5709 11.008 1.41081C11.008 1.25071 11.0457 1.11063 11.1212 0.990561C11.1966 0.87049 11.2909 0.770431 11.4041 0.690383C11.5551 0.610336 11.706 0.570312 11.8569 0.570312H17.1203C17.7239 0.570312 18.0258 1.01057 18.0258 1.89109V8.85521C18.0258 9.53561 18.1956 9.87581 18.5351 9.87581C18.9124 9.87581 19.4407 9.5156 20.1198 8.79518C20.8367 7.95468 21.5347 6.93408 22.2138 5.73337C22.893 4.53266 23.4023 3.53206 23.7419 2.73159L24.2513 1.59092C24.5154 0.910514 24.987 0.570312 25.6661 0.570312H29.0052C29.9108 0.570312 30.2503 1.01057 30.024 1.89109Z" fill="white"/>
</svg>
