<svg width="32" height="24" viewBox="0 0 32 24" fill="none" xmlns="http://www.w3.org/2000/svg">
<path d="M30.7789 4.4451C30.8929 4.91435 30.988 5.5009 31.064 6.20476C31.1781 6.90863 31.2541 7.61249 31.2921 8.31636C31.3301 8.98112 31.3491 9.60678 31.3491 10.1933C31.3871 10.7799 31.4062 11.2687 31.4062 11.6597V12.1876C31.4062 15.7069 31.1971 18.3073 30.7789 19.9888C30.5888 20.6535 30.2466 21.2401 29.7524 21.7484C29.2582 22.2568 28.669 22.6087 27.9847 22.8042C27.2623 22.9998 25.8937 23.1562 23.8789 23.2735C21.864 23.3517 20.0202 23.4103 18.3474 23.4494H15.8383C9.33748 23.4494 5.28871 23.2344 3.69201 22.8042C2.20936 22.3741 1.27795 21.4356 0.897783 19.9888C0.707699 19.2458 0.555633 18.2291 0.441583 16.9387C0.365549 15.6092 0.308524 14.4947 0.270508 13.5953V12.1876C0.270508 8.70739 0.479599 6.12656 0.897783 4.4451C1.08787 3.74124 1.43002 3.13513 1.92423 2.62679C2.41845 2.11844 3.00771 1.76651 3.69201 1.57099C4.41432 1.37547 5.78292 1.23861 7.79781 1.1604C9.81269 1.04309 11.6565 0.964885 13.3292 0.925781H15.8383C22.3392 0.925781 26.388 1.14085 27.9847 1.57099C28.669 1.76651 29.2582 2.11844 29.7524 2.62679C30.2466 3.13513 30.5888 3.74124 30.7789 4.4451ZM12.6449 16.9974L20.7995 12.1876L12.6449 7.43653V16.9974Z" fill="white"/>
</svg>
